<mxfile host="app.diagrams.net" modified="2022-04-27T02:40:09.721Z" agent="5.0 (Windows NT 10.0; Win64; x64) AppleWebKit/537.36 (KHTML, like Gecko) Chrome/100.0.4896.127 Safari/537.36" etag="8VfvU7OVlcYwrZg47Rcq" version="17.4.5" type="github">
  <diagram id="C5RBs43oDa-KdzZeNtuy" name="Page-1">
    <mxGraphModel dx="1363" dy="706" grid="1" gridSize="10" guides="1" tooltips="1" connect="1" arrows="1" fold="1" page="1" pageScale="1" pageWidth="827" pageHeight="1169" math="0" shadow="0">
      <root>
        <mxCell id="WIyWlLk6GJQsqaUBKTNV-0" />
        <mxCell id="WIyWlLk6GJQsqaUBKTNV-1" parent="WIyWlLk6GJQsqaUBKTNV-0" />
        <mxCell id="yI3EGUM581bo3C_Y3QZk-0" value="地形异质性" style="ellipse;whiteSpace=wrap;html=1;aspect=fixed;rounded=0;sketch=0;" vertex="1" parent="WIyWlLk6GJQsqaUBKTNV-1">
          <mxGeometry x="220" y="260" width="80" height="80" as="geometry" />
        </mxCell>
        <mxCell id="yI3EGUM581bo3C_Y3QZk-1" value="土壤环境异质性" style="ellipse;whiteSpace=wrap;html=1;aspect=fixed;rounded=0;sketch=0;" vertex="1" parent="WIyWlLk6GJQsqaUBKTNV-1">
          <mxGeometry x="500" y="260" width="80" height="80" as="geometry" />
        </mxCell>
        <mxCell id="yI3EGUM581bo3C_Y3QZk-2" value="物种多样性" style="rounded=0;whiteSpace=wrap;html=1;sketch=0;" vertex="1" parent="WIyWlLk6GJQsqaUBKTNV-1">
          <mxGeometry x="340" y="585" width="120" height="60" as="geometry" />
        </mxCell>
        <mxCell id="yI3EGUM581bo3C_Y3QZk-3" value="光谱多样性" style="rounded=0;whiteSpace=wrap;html=1;sketch=0;" vertex="1" parent="WIyWlLk6GJQsqaUBKTNV-1">
          <mxGeometry x="340" y="390" width="120" height="60" as="geometry" />
        </mxCell>
        <mxCell id="yI3EGUM581bo3C_Y3QZk-4" value="" style="endArrow=classic;html=1;rounded=1;sketch=0;curved=0;entryX=0.778;entryY=0.92;entryDx=0;entryDy=0;exitX=-0.009;exitY=0.605;exitDx=0;exitDy=0;exitPerimeter=0;entryPerimeter=0;" edge="1" parent="WIyWlLk6GJQsqaUBKTNV-1" source="yI3EGUM581bo3C_Y3QZk-3" target="yI3EGUM581bo3C_Y3QZk-0">
          <mxGeometry width="50" height="50" relative="1" as="geometry">
            <mxPoint x="260" y="450" as="sourcePoint" />
            <mxPoint x="310" y="400" as="targetPoint" />
          </mxGeometry>
        </mxCell>
        <mxCell id="yI3EGUM581bo3C_Y3QZk-5" value="" style="endArrow=classic;html=1;rounded=1;sketch=0;curved=0;entryX=0.5;entryY=0;entryDx=0;entryDy=0;exitX=0.5;exitY=1;exitDx=0;exitDy=0;" edge="1" parent="WIyWlLk6GJQsqaUBKTNV-1" source="yI3EGUM581bo3C_Y3QZk-3" target="yI3EGUM581bo3C_Y3QZk-2">
          <mxGeometry width="50" height="50" relative="1" as="geometry">
            <mxPoint x="400.20000000000005" y="459.06999999999994" as="sourcePoint" />
            <mxPoint x="260" y="380.93000000000006" as="targetPoint" />
          </mxGeometry>
        </mxCell>
        <mxCell id="yI3EGUM581bo3C_Y3QZk-6" value="" style="endArrow=classic;html=1;rounded=1;sketch=0;curved=0;entryX=0;entryY=0.5;entryDx=0;entryDy=0;exitX=1;exitY=0.5;exitDx=0;exitDy=0;" edge="1" parent="WIyWlLk6GJQsqaUBKTNV-1" source="yI3EGUM581bo3C_Y3QZk-0" target="yI3EGUM581bo3C_Y3QZk-1">
          <mxGeometry width="50" height="50" relative="1" as="geometry">
            <mxPoint x="220" y="300" as="sourcePoint" />
            <mxPoint x="270" y="250" as="targetPoint" />
          </mxGeometry>
        </mxCell>
        <mxCell id="yI3EGUM581bo3C_Y3QZk-8" value="" style="endArrow=classic;html=1;rounded=1;sketch=0;curved=0;entryX=0;entryY=1;entryDx=0;entryDy=0;exitX=1.013;exitY=0.605;exitDx=0;exitDy=0;exitPerimeter=0;" edge="1" parent="WIyWlLk6GJQsqaUBKTNV-1" source="yI3EGUM581bo3C_Y3QZk-3" target="yI3EGUM581bo3C_Y3QZk-1">
          <mxGeometry width="50" height="50" relative="1" as="geometry">
            <mxPoint x="480" y="410" as="sourcePoint" />
            <mxPoint x="530" y="360" as="targetPoint" />
          </mxGeometry>
        </mxCell>
        <mxCell id="yI3EGUM581bo3C_Y3QZk-9" value="" style="endArrow=classic;html=1;rounded=1;sketch=0;curved=0;entryX=0.25;entryY=0;entryDx=0;entryDy=0;exitX=0.5;exitY=1;exitDx=0;exitDy=0;" edge="1" parent="WIyWlLk6GJQsqaUBKTNV-1" source="yI3EGUM581bo3C_Y3QZk-0" target="yI3EGUM581bo3C_Y3QZk-2">
          <mxGeometry width="50" height="50" relative="1" as="geometry">
            <mxPoint x="260" y="450" as="sourcePoint" />
            <mxPoint x="310" y="400" as="targetPoint" />
          </mxGeometry>
        </mxCell>
        <mxCell id="yI3EGUM581bo3C_Y3QZk-10" value="" style="endArrow=classic;html=1;rounded=1;sketch=0;curved=0;entryX=0.75;entryY=0;entryDx=0;entryDy=0;exitX=0.564;exitY=0.996;exitDx=0;exitDy=0;exitPerimeter=0;" edge="1" parent="WIyWlLk6GJQsqaUBKTNV-1" source="yI3EGUM581bo3C_Y3QZk-1" target="yI3EGUM581bo3C_Y3QZk-2">
          <mxGeometry width="50" height="50" relative="1" as="geometry">
            <mxPoint x="580" y="350" as="sourcePoint" />
            <mxPoint x="430" y="550" as="targetPoint" />
          </mxGeometry>
        </mxCell>
        <mxCell id="yI3EGUM581bo3C_Y3QZk-11" value="海拔&lt;span style=&quot;white-space: pre&quot;&gt;	&lt;/span&gt;" style="rounded=0;whiteSpace=wrap;html=1;sketch=0;" vertex="1" parent="WIyWlLk6GJQsqaUBKTNV-1">
          <mxGeometry x="10" y="80" width="60" height="40" as="geometry" />
        </mxCell>
        <mxCell id="yI3EGUM581bo3C_Y3QZk-13" value="凹凸度" style="rounded=0;whiteSpace=wrap;html=1;sketch=0;" vertex="1" parent="WIyWlLk6GJQsqaUBKTNV-1">
          <mxGeometry x="220" y="80" width="60" height="40" as="geometry" />
        </mxCell>
        <mxCell id="yI3EGUM581bo3C_Y3QZk-14" value="坡向" style="rounded=0;whiteSpace=wrap;html=1;sketch=0;" vertex="1" parent="WIyWlLk6GJQsqaUBKTNV-1">
          <mxGeometry x="150" y="80" width="60" height="40" as="geometry" />
        </mxCell>
        <mxCell id="yI3EGUM581bo3C_Y3QZk-15" value="坡度" style="rounded=0;whiteSpace=wrap;html=1;sketch=0;" vertex="1" parent="WIyWlLk6GJQsqaUBKTNV-1">
          <mxGeometry x="80" y="80" width="60" height="40" as="geometry" />
        </mxCell>
        <mxCell id="yI3EGUM581bo3C_Y3QZk-16" value="PH&lt;span style=&quot;white-space: pre&quot;&gt;	&lt;/span&gt;" style="rounded=0;whiteSpace=wrap;html=1;sketch=0;" vertex="1" parent="WIyWlLk6GJQsqaUBKTNV-1">
          <mxGeometry x="470" y="80" width="60" height="40" as="geometry" />
        </mxCell>
        <mxCell id="yI3EGUM581bo3C_Y3QZk-17" value="C%" style="rounded=0;whiteSpace=wrap;html=1;sketch=0;" vertex="1" parent="WIyWlLk6GJQsqaUBKTNV-1">
          <mxGeometry x="680" y="80" width="60" height="40" as="geometry" />
        </mxCell>
        <mxCell id="yI3EGUM581bo3C_Y3QZk-18" value="N%" style="rounded=0;whiteSpace=wrap;html=1;sketch=0;" vertex="1" parent="WIyWlLk6GJQsqaUBKTNV-1">
          <mxGeometry x="610" y="80" width="60" height="40" as="geometry" />
        </mxCell>
        <mxCell id="yI3EGUM581bo3C_Y3QZk-19" value="P%" style="rounded=0;whiteSpace=wrap;html=1;sketch=0;" vertex="1" parent="WIyWlLk6GJQsqaUBKTNV-1">
          <mxGeometry x="540" y="80" width="60" height="40" as="geometry" />
        </mxCell>
        <mxCell id="yI3EGUM581bo3C_Y3QZk-20" value="etc...." style="rounded=0;whiteSpace=wrap;html=1;sketch=0;" vertex="1" parent="WIyWlLk6GJQsqaUBKTNV-1">
          <mxGeometry x="290" y="80" width="60" height="40" as="geometry" />
        </mxCell>
        <mxCell id="yI3EGUM581bo3C_Y3QZk-21" value="etc...." style="rounded=0;whiteSpace=wrap;html=1;sketch=0;" vertex="1" parent="WIyWlLk6GJQsqaUBKTNV-1">
          <mxGeometry x="750" y="80" width="60" height="40" as="geometry" />
        </mxCell>
        <mxCell id="yI3EGUM581bo3C_Y3QZk-23" value="" style="endArrow=classic;html=1;rounded=1;sketch=0;curved=0;" edge="1" parent="WIyWlLk6GJQsqaUBKTNV-1">
          <mxGeometry width="50" height="50" relative="1" as="geometry">
            <mxPoint x="240" y="250" as="sourcePoint" />
            <mxPoint x="180" y="130" as="targetPoint" />
          </mxGeometry>
        </mxCell>
        <mxCell id="yI3EGUM581bo3C_Y3QZk-24" value="" style="endArrow=classic;html=1;rounded=1;sketch=0;curved=0;" edge="1" parent="WIyWlLk6GJQsqaUBKTNV-1">
          <mxGeometry width="50" height="50" relative="1" as="geometry">
            <mxPoint x="200" y="280" as="sourcePoint" />
            <mxPoint x="40" y="150" as="targetPoint" />
          </mxGeometry>
        </mxCell>
        <mxCell id="yI3EGUM581bo3C_Y3QZk-25" value="" style="endArrow=classic;html=1;rounded=1;sketch=0;curved=0;" edge="1" parent="WIyWlLk6GJQsqaUBKTNV-1">
          <mxGeometry width="50" height="50" relative="1" as="geometry">
            <mxPoint x="260" y="250" as="sourcePoint" />
            <mxPoint x="240" y="130" as="targetPoint" />
          </mxGeometry>
        </mxCell>
        <mxCell id="yI3EGUM581bo3C_Y3QZk-26" value="" style="endArrow=classic;html=1;rounded=1;sketch=0;curved=0;" edge="1" parent="WIyWlLk6GJQsqaUBKTNV-1">
          <mxGeometry width="50" height="50" relative="1" as="geometry">
            <mxPoint x="210" y="250" as="sourcePoint" />
            <mxPoint x="110" y="130" as="targetPoint" />
          </mxGeometry>
        </mxCell>
        <mxCell id="yI3EGUM581bo3C_Y3QZk-27" value="" style="endArrow=classic;html=1;rounded=1;sketch=0;curved=0;" edge="1" parent="WIyWlLk6GJQsqaUBKTNV-1">
          <mxGeometry width="50" height="50" relative="1" as="geometry">
            <mxPoint x="300" y="250" as="sourcePoint" />
            <mxPoint x="310" y="120" as="targetPoint" />
          </mxGeometry>
        </mxCell>
        <mxCell id="yI3EGUM581bo3C_Y3QZk-29" value="" style="endArrow=classic;html=1;rounded=1;sketch=0;curved=0;" edge="1" parent="WIyWlLk6GJQsqaUBKTNV-1">
          <mxGeometry width="50" height="50" relative="1" as="geometry">
            <mxPoint x="530" y="240" as="sourcePoint" />
            <mxPoint x="490" y="130" as="targetPoint" />
          </mxGeometry>
        </mxCell>
        <mxCell id="yI3EGUM581bo3C_Y3QZk-30" value="" style="endArrow=classic;html=1;rounded=1;sketch=0;curved=0;" edge="1" parent="WIyWlLk6GJQsqaUBKTNV-1">
          <mxGeometry width="50" height="50" relative="1" as="geometry">
            <mxPoint x="590" y="260" as="sourcePoint" />
            <mxPoint x="710" y="130" as="targetPoint" />
          </mxGeometry>
        </mxCell>
        <mxCell id="yI3EGUM581bo3C_Y3QZk-31" value="" style="endArrow=classic;html=1;rounded=1;sketch=0;curved=0;" edge="1" parent="WIyWlLk6GJQsqaUBKTNV-1">
          <mxGeometry width="50" height="50" relative="1" as="geometry">
            <mxPoint x="550" y="240" as="sourcePoint" />
            <mxPoint x="560" y="130" as="targetPoint" />
          </mxGeometry>
        </mxCell>
        <mxCell id="yI3EGUM581bo3C_Y3QZk-32" value="" style="endArrow=classic;html=1;rounded=1;sketch=0;curved=0;" edge="1" parent="WIyWlLk6GJQsqaUBKTNV-1">
          <mxGeometry width="50" height="50" relative="1" as="geometry">
            <mxPoint x="590" y="280" as="sourcePoint" />
            <mxPoint x="780" y="130" as="targetPoint" />
          </mxGeometry>
        </mxCell>
        <mxCell id="yI3EGUM581bo3C_Y3QZk-33" value="" style="endArrow=classic;html=1;rounded=1;sketch=0;curved=0;" edge="1" parent="WIyWlLk6GJQsqaUBKTNV-1">
          <mxGeometry width="50" height="50" relative="1" as="geometry">
            <mxPoint x="570" y="250" as="sourcePoint" />
            <mxPoint x="640" y="130" as="targetPoint" />
          </mxGeometry>
        </mxCell>
        <mxCell id="yI3EGUM581bo3C_Y3QZk-40" value="" style="endArrow=classic;startArrow=classic;html=1;sketch=0;curved=1;entryX=0.588;entryY=-0.04;entryDx=0;entryDy=0;entryPerimeter=0;exitX=0.5;exitY=0;exitDx=0;exitDy=0;" edge="1" parent="WIyWlLk6GJQsqaUBKTNV-1" source="yI3EGUM581bo3C_Y3QZk-13" target="yI3EGUM581bo3C_Y3QZk-16">
          <mxGeometry width="50" height="50" relative="1" as="geometry">
            <mxPoint x="320" y="50" as="sourcePoint" />
            <mxPoint x="370" as="targetPoint" />
            <Array as="points">
              <mxPoint x="380" y="-40" />
            </Array>
          </mxGeometry>
        </mxCell>
        <mxCell id="yI3EGUM581bo3C_Y3QZk-41" value="" style="endArrow=classic;startArrow=classic;html=1;sketch=0;curved=1;entryX=0.5;entryY=0;entryDx=0;entryDy=0;exitX=0.5;exitY=0;exitDx=0;exitDy=0;" edge="1" parent="WIyWlLk6GJQsqaUBKTNV-1" target="yI3EGUM581bo3C_Y3QZk-19">
          <mxGeometry width="50" height="50" relative="1" as="geometry">
            <mxPoint x="260" y="80" as="sourcePoint" />
            <mxPoint x="515.28" y="78.39999999999998" as="targetPoint" />
            <Array as="points">
              <mxPoint x="390" y="-40" />
            </Array>
          </mxGeometry>
        </mxCell>
        <mxCell id="yI3EGUM581bo3C_Y3QZk-42" value="&lt;font style=&quot;font-size: 19px&quot;&gt;......&lt;/font&gt;" style="text;html=1;align=center;verticalAlign=middle;resizable=0;points=[];autosize=1;strokeColor=none;fillColor=none;" vertex="1" parent="WIyWlLk6GJQsqaUBKTNV-1">
          <mxGeometry x="580" y="50" width="50" height="20" as="geometry" />
        </mxCell>
        <mxCell id="yI3EGUM581bo3C_Y3QZk-43" value="" style="endArrow=classic;html=1;sketch=0;fontSize=19;curved=1;" edge="1" parent="WIyWlLk6GJQsqaUBKTNV-1">
          <mxGeometry relative="1" as="geometry">
            <mxPoint x="30" y="510" as="sourcePoint" />
            <mxPoint x="120" y="660" as="targetPoint" />
          </mxGeometry>
        </mxCell>
        <mxCell id="yI3EGUM581bo3C_Y3QZk-44" value="Label" style="edgeLabel;resizable=0;html=1;align=center;verticalAlign=middle;rounded=0;sketch=0;fontSize=19;" connectable="0" vertex="1" parent="yI3EGUM581bo3C_Y3QZk-43">
          <mxGeometry relative="1" as="geometry" />
        </mxCell>
        <mxCell id="yI3EGUM581bo3C_Y3QZk-45" value="Source" style="edgeLabel;resizable=0;html=1;align=left;verticalAlign=bottom;rounded=0;sketch=0;fontSize=19;" connectable="0" vertex="1" parent="yI3EGUM581bo3C_Y3QZk-43">
          <mxGeometry x="-1" relative="1" as="geometry" />
        </mxCell>
        <mxCell id="yI3EGUM581bo3C_Y3QZk-48" value="" style="edgeStyle=entityRelationEdgeStyle;curved=1;sketch=0;orthogonalLoop=1;jettySize=auto;html=1;fontSize=19;" edge="1" parent="WIyWlLk6GJQsqaUBKTNV-1" source="yI3EGUM581bo3C_Y3QZk-46" target="yI3EGUM581bo3C_Y3QZk-47">
          <mxGeometry relative="1" as="geometry" />
        </mxCell>
        <mxCell id="yI3EGUM581bo3C_Y3QZk-46" value="从控制实验出发" style="rounded=0;whiteSpace=wrap;html=1;sketch=0;fontSize=19;" vertex="1" parent="WIyWlLk6GJQsqaUBKTNV-1">
          <mxGeometry x="100" y="770" width="180" height="60" as="geometry" />
        </mxCell>
        <mxCell id="yI3EGUM581bo3C_Y3QZk-47" value="光谱~环境异质性" style="whiteSpace=wrap;html=1;fontSize=19;rounded=0;sketch=0;" vertex="1" parent="WIyWlLk6GJQsqaUBKTNV-1">
          <mxGeometry x="390" y="770" width="240" height="60" as="geometry" />
        </mxCell>
      </root>
    </mxGraphModel>
  </diagram>
</mxfile>
